# This file uses centimeters as units for non-parametric coordinates.

mtllib big_rock.mtl
g default
v 0.228346 0.084639 0.100350
v 0.160507 -0.004912 0.129266
v 0.144607 0.322006 -0.170124
v 0.155218 0.359904 0.087791
v -0.035585 0.359946 0.090883
v -0.020699 0.245574 -0.211799
v -0.160340 0.053157 -0.100681
v 0.064935 0.437162 -0.120990
v -0.022520 0.431247 -0.048545
v 0.240759 0.323450 -0.052864
v 0.259957 0.022910 -0.098676
v -0.009193 0.048047 0.166197
v -0.077029 -0.005489 0.095364
v -0.052740 0.025640 -0.206827
v 0.085367 -0.005000 -0.214820
v 0.090343 0.443715 -0.006116
v 0.122937 -0.004956 -0.042777
vt 0.959820 0.578066
vt 0.999002 0.758113
vt 0.923851 0.830084
vt 0.489384 0.063140
vt 0.692627 0.388633
vt 0.544698 0.464281
vt 0.603235 0.804314
vt 0.594755 0.657787
vt 0.777287 0.617926
vt 0.717981 0.472553
vt 0.031677 0.096022
vt 0.194232 0.349393
vt 0.045001 0.388069
vt 0.371491 0.267288
vt 0.376765 0.033944
vt 0.338593 0.535174
vt 0.513029 0.866045
vt 0.310592 0.866089
vt 0.117879 0.626916
vt 0.237623 0.581900
vt 0.210666 0.703777
vt 0.104017 0.478987
vt 0.318641 0.347861
vt 0.266511 0.470038
vt 0.772532 0.057718
vt 0.697381 0.000918
vt 0.810864 0.204186
vt 0.986248 0.123094
vt 0.923397 0.470038
vt 0.901719 0.000918
vt 0.590616 0.573997
vt 0.518641 0.478987
vt 0.306453 0.482267
vt 0.715854 0.918475
vt 0.242837 0.030530
vt 0.776870 0.437530
vt 0.366063 0.000918
vt 0.144634 0.476991
vt 0.467836 0.470557
vt 0.000998 0.001012
vn -0.091629 -0.750236 0.654790
vn -0.091629 -0.750236 0.654790
vn -0.091629 -0.750236 0.654790
vn -0.939969 0.331412 0.081394
vn -0.939969 0.331412 0.081394
vn -0.939969 0.331412 0.081394
vn -0.221568 -0.968037 -0.117527
vn -0.221568 -0.968037 -0.117527
vn -0.221568 -0.968037 -0.117527
vn 0.183513 -0.982210 -0.039822
vn 0.183513 -0.982210 -0.039822
vn 0.183513 -0.982210 -0.039822
vn 0.183513 -0.982210 -0.039822
vn 0.854924 0.247914 0.455680
vn 0.854924 0.247914 0.455680
vn 0.854924 0.247914 0.455680
vn -0.688817 0.084074 -0.720044
vn -0.688817 0.084074 -0.720044
vn -0.688817 0.084074 -0.720044
vn 0.015798 0.235955 0.971636
vn 0.015798 0.235955 0.971636
vn 0.015798 0.235955 0.971636
vn -0.096591 0.994695 -0.035381
vn -0.096591 0.994695 -0.035381
vn -0.096591 0.994695 -0.035381
vn -0.254546 0.870473 0.421288
vn -0.254546 0.870473 0.421288
vn -0.254546 0.870473 0.421288
vn 0.598643 0.626916 -0.498601
vn 0.598643 0.626916 -0.498601
vn 0.598643 0.626916 -0.498601
vn -0.753390 0.093423 0.650904
vn -0.753390 0.093423 0.650904
vn -0.753390 0.093423 0.650904
vn -0.832346 0.361356 -0.420263
vn -0.832346 0.361356 -0.420263
vn -0.832346 0.361356 -0.420263
vn 0.200983 0.096829 -0.974797
vn 0.200983 0.096829 -0.974797
vn 0.200983 0.096829 -0.974797
vn 0.037776 0.414162 -0.909419
vn 0.037776 0.414162 -0.909419
vn 0.037776 0.414162 -0.909419
vn 0.259882 0.112797 0.959030
vn 0.259882 0.112797 0.959030
vn 0.259882 0.112797 0.959030
vn 0.010888 0.749751 0.661630
vn 0.010888 0.749751 0.661630
vn 0.010888 0.749751 0.661630
vn -0.903027 0.107511 0.415913
vn -0.903027 0.107511 0.415913
vn -0.903027 0.107511 0.415913
vn -0.359037 -0.925030 -0.124146
vn -0.359037 -0.925030 -0.124146
vn -0.359037 -0.925030 -0.124146
vn 0.002472 -0.999997 -0.000282
vn 0.002472 -0.999997 -0.000282
vn 0.002472 -0.999997 -0.000282
vn 0.002472 -0.999997 -0.000282
vn 0.988683 0.041165 0.144263
vn 0.988683 0.041165 0.144263
vn 0.988683 0.041165 0.144263
vn -0.060802 -0.013702 -0.998056
vn -0.060802 -0.013702 -0.998056
vn -0.060802 -0.013702 -0.998056
vn 0.552286 0.013880 -0.833539
vn 0.552286 0.013880 -0.833539
vn 0.552286 0.013880 -0.833539
vn 0.764268 0.144619 -0.628474
vn 0.764268 0.144619 -0.628474
vn 0.764268 0.144619 -0.628474
vn 0.244833 0.113025 0.962955
vn 0.244833 0.113025 0.962955
vn 0.244833 0.113025 0.962955
vn 0.649298 0.732364 0.205071
vn 0.649298 0.732364 0.205071
vn 0.649298 0.732364 0.205071
vn -0.556155 0.545689 -0.626829
vn -0.556155 0.545689 -0.626829
vn -0.556155 0.545689 -0.626829
vn 0.805759 -0.517273 0.288411
vn 0.805759 -0.517273 0.288411
vn 0.805759 -0.517273 0.288411
vn 0.581420 0.794793 -0.173940
vn 0.581420 0.794793 -0.173940
vn 0.581420 0.794793 -0.173940
s off
g Rock
usemtl big_rock:initialShadingGroup
f 2/1/1 12/2/2 13/3/3
f 7/4/4 5/5/5 9/6/6
f 13/3/7 14/7/8 15/8/9
f 2/1/10 17/9/11 15/8/12 11/10/13
f 1/11/14 10/12/15 4/13/16
f 7/4/17 6/14/18 14/15/19
f 12/16/20 4/17/21 5/18/22
f 9/19/23 16/20/24 8/21/25
f 9/19/26 5/22/27 16/20/28
f 10/12/29 3/23/30 8/24/31
f 12/25/32 5/5/33 13/26/34
f 9/6/35 6/14/36 7/4/37
f 6/27/38 3/28/39 15/29/40
f 8/30/41 3/28/42 6/27/43
f 1/31/44 4/17/45 2/32/46
f 5/22/47 4/33/48 16/20/49
f 13/26/50 5/5/51 7/4/52
f 13/3/53 7/34/54 14/7/55
f 2/1/56 13/3/57 15/8/58 17/9/59
f 11/35/60 10/12/61 1/11/62
f 15/29/63 14/36/64 6/27/65
f 15/37/66 3/23/67 11/35/68
f 10/12/69 11/35/70 3/23/71
f 2/32/72 4/17/73 12/16/74
f 10/12/75 16/38/76 4/13/77
f 8/39/78 6/14/79 9/6/80
f 2/40/81 11/35/82 1/11/83
f 10/12/84 8/24/85 16/38/86
